<?xml version="1.0" encoding="UTF-8" standalone="no"?>
<!-- generated by Grace-5.1.25 -->

<svg
   xmlns:dc="http://purl.org/dc/elements/1.1/"
   xmlns:cc="http://creativecommons.org/ns#"
   xmlns:rdf="http://www.w3.org/1999/02/22-rdf-syntax-ns#"
   xmlns:svg="http://www.w3.org/2000/svg"
   xmlns="http://www.w3.org/2000/svg"
   xmlns:sodipodi="http://sodipodi.sourceforge.net/DTD/sodipodi-0.dtd"
   xmlns:inkscape="http://www.inkscape.org/namespaces/inkscape"
   xml:space="preserve"
   width="946.177"
   height="500.64813"
   viewBox="0 0 756.94291 400.51977"
   id="svg2"
   version="1.1"
   inkscape:version="0.91 r13725"
   sodipodi:docname="example-many.svg"><metadata
     id="metadata124"><rdf:RDF><cc:Work
         rdf:about=""><dc:format>image/svg+xml</dc:format><dc:type
           rdf:resource="http://purl.org/dc/dcmitype/StillImage" /><dc:title></dc:title></cc:Work></rdf:RDF></metadata><defs
     id="defs122" /><sodipodi:namedview
     pagecolor="#ffffff"
     bordercolor="#666666"
     borderopacity="1"
     objecttolerance="10"
     gridtolerance="10"
     guidetolerance="10"
     inkscape:pageopacity="0"
     inkscape:pageshadow="2"
     inkscape:window-width="913"
     inkscape:window-height="751"
     id="namedview120"
     showgrid="false"
     units="px"
     fit-margin-top="5"
     fit-margin-right="5"
     fit-margin-bottom="5"
     fit-margin-left="5"
     inkscape:zoom="0.55567902"
     inkscape:cx="464.00995"
     inkscape:cy="275.10121"
     inkscape:window-x="0"
     inkscape:window-y="23"
     inkscape:window-maximized="0"
     inkscape:current-layer="svg2" /><g
     id="g3562"
     transform="translate(-82.29151,-75.061887)"><path
       inkscape:connector-curvature="0"
       id="path12"
       d="m 102.1489,425.4075 42.3724,0 0,-5.9557 7.0771,0 0,5.9557 59.2877,0 0,-5.9557 54.775,0 0,5.9557 77.3913,0 0,0 36.9637,0 0,-5.9557 165.5933,0 0,5.9557 28.4133,0 0,0 243.6284,0"
       style="fill:none;stroke:#1f78b4;stroke-width:1.14979994;stroke-linecap:butt;stroke-linejoin:miter;stroke-dasharray:none" /><path
       inkscape:connector-curvature="0"
       id="path14"
       d="m 102.1489,416.465 68.7715,0 0,-5.9557 163.8194,0 0,5.9557 62.135,0 0,0 62.4511,0 0,-5.9557 60.7462,0 0,5.9557 12.6077,0 0,0 284.9713,0"
       style="fill:none;stroke:#1f78b4;stroke-width:1.14979994;stroke-linecap:butt;stroke-linejoin:miter;stroke-dasharray:none" /><path
       inkscape:connector-curvature="0"
       id="path16"
       d="m 102.1489,407.5225 98.8934,0 0,-5.9557 69.3378,0 0,5.9557 163.1088,0 0,0 41.9003,0 0,-5.9557 55.0266,0 0,5.9557 106.3388,0 0,0 180.8965,0"
       style="fill:none;stroke:#1f78b4;stroke-width:1.14979994;stroke-linecap:butt;stroke-linejoin:miter;stroke-dasharray:none" /><path
       inkscape:connector-curvature="0"
       id="path18"
       d="m 102.1489,398.58 108.3803,0 0,-5.9557 164.9376,0 0,5.9557 41.5018,0 0,-5.9557 120.2244,0 0,5.9557 34.2154,0 0,0 135.3766,0 0,-5.9557 16.2928,0 0,5.9557 94.5733,0"
       style="fill:none;stroke:#1f78b4;stroke-width:1.14979994;stroke-linecap:butt;stroke-linejoin:miter;stroke-dasharray:none" /><path
       inkscape:connector-curvature="0"
       id="path20"
       d="m 102.1489,389.6375 128.1413,0 0,-5.9557 68.6722,0 0,5.9557 115.7243,0 0,0 34.7707,0 0,-5.9557 88.1065,0 0,5.9557 280.0872,0"
       style="fill:none;stroke:#1f78b4;stroke-width:1.14979994;stroke-linecap:butt;stroke-linejoin:miter;stroke-dasharray:none" /><path
       inkscape:connector-curvature="0"
       id="path22"
       d="m 102.1489,380.695 53.1105,0 0,-5.9557 4.738,0 0,5.9557 43.443,0 0,-5.9557 82.3819,0 0,5.9557 79.9064,0 0,0 51.7275,0 0,-5.9557 285.2645,0 0,5.9557 114.9304,0"
       style="fill:none;stroke:#1f78b4;stroke-width:1.14979994;stroke-linecap:butt;stroke-linejoin:miter;stroke-dasharray:none" /><path
       inkscape:connector-curvature="0"
       id="path24"
       d="m 102.1489,371.7525 142.7611,0 0,-5.9557 146.2271,0 0,5.9557 70.1607,0 0,-5.9557 62.1537,0 0,5.9557 66.4678,0 0,0 105.7345,0 0,0 121.9973,0"
       style="fill:none;stroke:#1f78b4;stroke-width:1.14979994;stroke-linecap:butt;stroke-linejoin:miter;stroke-dasharray:none" /><path
       inkscape:connector-curvature="0"
       id="path26"
       d="m 102.1489,362.81 95.4937,0 0,-5.9557 132.1878,0 0,5.9557 27.8773,0 0,0 67.3729,0 0,-5.9557 54.4838,0 0,5.9557 42.6395,0 0,0 175.3078,0 0,0 120.1394,0"
       style="fill:none;stroke:#1f78b4;stroke-width:1.14979994;stroke-linecap:butt;stroke-linejoin:miter;stroke-dasharray:none" /><path
       inkscape:connector-curvature="0"
       id="path28"
       d="m 102.1489,353.8675 131.5628,0 0,-5.9557 186.2848,0 0,5.9557 38.513,0 0,-5.9557 16.496,0 0,5.9557 67.4851,0 0,0 275.1605,0"
       style="fill:none;stroke:#1f78b4;stroke-width:1.14979994;stroke-linecap:butt;stroke-linejoin:miter;stroke-dasharray:none" /><path
       inkscape:connector-curvature="0"
       id="path30"
       d="m 102.1489,344.925 88.1062,0 0,-5.9557 152.8024,0 0,5.9557 17.8119,0 0,0 49.5675,0 0,-5.9557 36.5137,0 0,5.9557 223.7408,0 0,0 146.9597,0"
       style="fill:none;stroke:#1f78b4;stroke-width:1.14979994;stroke-linecap:butt;stroke-linejoin:miter;stroke-dasharray:none" /><path
       inkscape:connector-curvature="0"
       id="path32"
       d="m 102.1489,335.9825 54.5162,0 0,-5.9557 20.8068,0 0,5.9557 30.6099,0 0,-5.9557 22.4627,0 0,5.9557 170.321,0 0,0 34.7656,0 0,-5.9557 176.8901,0 0,5.9557 91.6488,0 0,0 113.4811,0"
       style="fill:none;stroke:#1f78b4;stroke-width:1.14979994;stroke-linecap:butt;stroke-linejoin:miter;stroke-dasharray:none" /><path
       inkscape:connector-curvature="0"
       id="path34"
       d="m 102.1489,327.04 56.9903,0 0,-5.9557 177.2796,0 0,5.9557 45.3644,0 0,0 44.0485,0 0,-5.9557 117.71,0 0,5.9557 76.9942,0 0,0 197.1152,0"
       style="fill:none;stroke:#1f78b4;stroke-width:1.14979994;stroke-linecap:butt;stroke-linejoin:miter;stroke-dasharray:none" /><path
       inkscape:connector-curvature="0"
       id="path36"
       d="m 102.1489,318.0975 55.2632,0 0,-5.9557 16.3094,0 0,0 7.5219,0 0,5.9557 247.4905,0 0,0 44.981,0 0,-5.9557 222.0475,0 0,5.9557 121.8887,0"
       style="fill:none;stroke:#1f78b4;stroke-width:1.14979994;stroke-linecap:butt;stroke-linejoin:miter;stroke-dasharray:none" /><path
       inkscape:connector-curvature="0"
       id="path38"
       d="m 102.1489,309.155 83.8934,0 0,-5.9557 225.2053,0 0,5.9557 23.4044,0 0,0 36.4951,0 0,-5.9557 28.0203,0 0,5.9557 72.302,0 0,0 109.5504,0 0,0 136.6313,0"
       style="fill:none;stroke:#1f78b4;stroke-width:1.14979994;stroke-linecap:butt;stroke-linejoin:miter;stroke-dasharray:none" /><path
       inkscape:connector-curvature="0"
       id="path40"
       d="m 102.1489,300.2125 53.1972,0 0,-5.9557 138.5016,0 0,5.9557 102.5417,0 0,0 47.8293,0 0,-5.9557 100.4688,0 0,5.9557 149.4287,0 0,0 123.5349,0"
       style="fill:none;stroke:#1f78b4;stroke-width:1.14979994;stroke-linecap:butt;stroke-linejoin:miter;stroke-dasharray:none" /><path
       inkscape:connector-curvature="0"
       id="path42"
       d="m 102.1489,291.27 87.7329,0 0,-5.9557 131.3375,0 0,5.9557 75.1219,0 0,0 13.8486,0 0,-5.9557 23.8135,0 0,5.9557 11.1178,0 0,-5.9557 124.974,0 0,5.9557 139.6619,0 0,0 107.8941,0"
       style="fill:none;stroke:#1f78b4;stroke-width:1.14979994;stroke-linecap:butt;stroke-linejoin:miter;stroke-dasharray:none" /><path
       inkscape:connector-curvature="0"
       id="path44"
       d="m 102.1489,282.3275 54.7325,0 0,-5.9557 204.1173,0 0,5.9557 36.495,0 0,-5.9557 180.2696,0 0,5.9557 93.4426,0 0,0 38.2751,0 0,0 108.1701,0"
       style="fill:none;stroke:#1f78b4;stroke-width:1.14979994;stroke-linecap:butt;stroke-linejoin:miter;stroke-dasharray:none" /><path
       inkscape:connector-curvature="0"
       id="path46"
       d="m 102.1489,273.385 111.0229,0 0,-5.9557 39.1079,0 0,5.9557 177.9484,0 0,0 30.2514,0 0,-5.9557 16.803,0 0,5.9557 76.1782,0 0,0 264.1904,0"
       style="fill:none;stroke:#1f78b4;stroke-width:1.14979994;stroke-linecap:butt;stroke-linejoin:miter;stroke-dasharray:none" /><path
       inkscape:connector-curvature="0"
       id="path48"
       d="m 102.1489,264.4425 29.8931,0 0,-5.9557 3.9996,0 0,5.9557 54.2552,0 0,-5.9557 116.4586,0 0,5.9557 60.3029,0 0,0 24.0157,0 0,-5.9557 93.5427,0 0,5.9557 193.9323,0 0,0 139.1021,0"
       style="fill:none;stroke:#1f78b4;stroke-width:1.14979994;stroke-linecap:butt;stroke-linejoin:miter;stroke-dasharray:none" /><path
       inkscape:connector-curvature="0"
       id="path50"
       d="m 102.1489,255.5 61.8706,0 0,-5.9557 44.8881,0 0,5.9557 143.9157,0 0,0 38.5485,0 0,-5.9557 125.195,0 0,5.9557 143.1269,0 0,0 43.248,0 0,0 114.7094,0"
       style="fill:none;stroke:#1f78b4;stroke-width:1.14979994;stroke-linecap:butt;stroke-linejoin:miter;stroke-dasharray:none" /><path
       inkscape:connector-curvature="0"
       id="path52"
       d="m 102.1489,246.5575 90.9185,0 0,-5.9557 21.1031,0 0,5.9557 18.1947,0 0,-5.9557 201.4185,0 0,5.9557 62.5151,0 0,-5.9557 95.9417,0 0,5.9557 107.3502,0 0,0 118.0604,0"
       style="fill:none;stroke:#1f78b4;stroke-width:1.14979994;stroke-linecap:butt;stroke-linejoin:miter;stroke-dasharray:none" /><path
       inkscape:connector-curvature="0"
       id="path54"
       d="m 102.1489,237.615 68.9616,0 0,-5.9557 96.0484,0 0,5.9557 106.6937,0 0,-5.9557 23.4421,0 0,5.9557 21.2634,0 0,0 45.8001,0 0,-5.9557 125.3041,0 0,5.9557 227.9888,0"
       style="fill:none;stroke:#1f78b4;stroke-width:1.14979994;stroke-linecap:butt;stroke-linejoin:miter;stroke-dasharray:none" /><path
       inkscape:connector-curvature="0"
       id="path56"
       d="m 102.1489,228.6725 137.3351,0 0,-5.9557 51.1554,0 0,5.9557 29.8914,0 0,-5.9557 15.3951,0 0,5.9557 15.7428,0 0,0 70.1283,0 0,-5.9557 69.5935,0 0,5.9557 74.1155,0 0,0 252.1451,0"
       style="fill:none;stroke:#1f78b4;stroke-width:1.14979994;stroke-linecap:butt;stroke-linejoin:miter;stroke-dasharray:none" /><path
       inkscape:connector-curvature="0"
       id="path58"
       d="m 102.1489,219.73 47.9058,0 0,-5.9557 162.1958,0 0,5.9557 27.6465,0 0,0 89.0572,0 0,0 49.5272,0 0,-5.9557 63.3639,0 0,5.9557 126.8428,0 0,0 148.963,0"
       style="fill:none;stroke:#1f78b4;stroke-width:1.14979994;stroke-linecap:butt;stroke-linejoin:miter;stroke-dasharray:none" /><path
       inkscape:connector-curvature="0"
       id="path60"
       d="m 102.1489,210.7875 86.1281,0 0,-5.9557 180.5912,0 0,5.9557 29.9175,0 0,-5.9557 66.9893,0 0,5.9557 101.9785,0 0,0 43.8964,0 0,0 206.0012,0"
       style="fill:none;stroke:#1f78b4;stroke-width:1.14979994;stroke-linecap:butt;stroke-linejoin:miter;stroke-dasharray:none" /><path
       inkscape:connector-curvature="0"
       id="path62"
       d="m 102.1489,201.845 89.9206,0 0,-5.9557 43.3926,0 0,5.9557 98.4058,0 0,-5.9557 19.9496,0 0,5.9557 7.2334,0 0,0 46.4145,0 0,-5.9557 295.8959,0 0,5.9557 114.2898,0"
       style="fill:none;stroke:#1f78b4;stroke-width:1.14979994;stroke-linecap:butt;stroke-linejoin:miter;stroke-dasharray:none" /><path
       inkscape:connector-curvature="0"
       id="path64"
       d="m 102.1489,192.9025 71.0991,0 0,-5.9557 104.0723,0 0,5.9557 108.668,0 0,0 64.3735,0 0,-5.9557 72.7054,0 0,5.9557 22.2665,0 0,0 272.3174,0"
       style="fill:none;stroke:#1f78b4;stroke-width:1.14979994;stroke-linecap:butt;stroke-linejoin:miter;stroke-dasharray:none" /><path
       inkscape:connector-curvature="0"
       id="path66"
       d="m 102.1489,183.96 64.5217,0 0,-5.9557 265.3733,0 0,5.9557 48.5498,0 0,-5.9557 43.1273,0 0,5.9557 17.2993,0 0,0 111.0062,0 0,-5.9557 12.1813,0 0,5.9557 74.3454,0 0,-5.9557 15.1642,0 0,5.9557 63.9337,0"
       style="fill:none;stroke:#1f78b4;stroke-width:1.14979994;stroke-linecap:butt;stroke-linejoin:miter;stroke-dasharray:none" /><path
       inkscape:connector-curvature="0"
       id="path68"
       d="m 102.1489,175.0175 126.9697,0 0,-5.9557 65.3212,0 0,5.9557 98.4865,0 0,0 66.6376,0 0,-5.9557 5.5315,0 0,5.9557 208.2142,0 0,0 144.3415,0"
       style="fill:none;stroke:#1f78b4;stroke-width:1.14979994;stroke-linecap:butt;stroke-linejoin:miter;stroke-dasharray:none" /><path
       inkscape:connector-curvature="0"
       id="path70"
       d="m 102.1489,166.075 63.7205,0 0,-5.9557 11.1326,0 0,5.9557 24.4147,0 0,-5.9557 64.2718,0 0,5.9557 88.1772,0 0,0 34.8763,0 0,-5.9557 189.31,0 0,5.9557 85.7751,0 0,0 153.824,0"
       style="fill:none;stroke:#1f78b4;stroke-width:1.14979994;stroke-linecap:butt;stroke-linejoin:miter;stroke-dasharray:none" /><path
       inkscape:connector-curvature="0"
       id="path72"
       d="m 102.1489,157.1325 41.8935,0 0,-5.9557 9.5987,0 0,5.9557 32.5355,0 0,-5.9557 155.0525,0 0,5.9557 40.6232,0 0,-5.9557 118.219,0 0,5.9557 175.1117,0 0,0 42.0032,0 0,-5.9557 11.3777,0 0,5.9557 89.0872,0"
       style="fill:none;stroke:#1f78b4;stroke-width:1.14979994;stroke-linecap:butt;stroke-linejoin:miter;stroke-dasharray:none" /><path
       inkscape:connector-curvature="0"
       id="path74"
       d="m 102.1489,148.19 40.6173,0 0,-5.9557 10.8412,0 0,5.9557 34.8524,0 0,-5.9557 167.9499,0 0,5.9557 46.1381,0 0,-5.9557 122.0122,0 0,5.9557 31.228,0 0,0 261.8631,0"
       style="fill:none;stroke:#1f78b4;stroke-width:1.14979994;stroke-linecap:butt;stroke-linejoin:miter;stroke-dasharray:none" /><path
       inkscape:connector-curvature="0"
       id="path76"
       d="m 102.1489,139.2475 74.6807,0 0,-5.9557 2.8007,0 0,5.9557 42.8742,0 0,-5.9557 136.8603,0 0,5.9557 17.4655,0 0,0 59.7125,0 0,-5.9557 157.1385,0 0,5.9557 96.4677,0 0,0 127.5021,0"
       style="fill:none;stroke:#1f78b4;stroke-width:1.14979994;stroke-linecap:butt;stroke-linejoin:miter;stroke-dasharray:none" /><path
       inkscape:connector-curvature="0"
       id="path78"
       d="m 102.1489,130.305 49.6884,0 0,-5.9557 126.7469,0 0,5.9557 76.6177,0 0,0 29.8666,0 0,-5.9557 117.4797,0 0,5.9557 156.6067,0 0,0 158.4962,0"
       style="fill:none;stroke:#1f78b4;stroke-width:1.14979994;stroke-linecap:butt;stroke-linejoin:miter;stroke-dasharray:none" /><path
       inkscape:connector-curvature="0"
       id="path80"
       d="m 102.1489,121.3625 71.0166,0 0,-5.9557 6.4844,0 0,0 10.7222,0 0,5.9557 214.9045,0 0,0 69.5451,0 0,-5.9557 132.2894,0 0,5.9557 210.54,0"
       style="fill:none;stroke:#1f78b4;stroke-width:1.14979994;stroke-linecap:butt;stroke-linejoin:miter;stroke-dasharray:none" /><path
       inkscape:connector-curvature="0"
       id="path82"
       d="m 102.1489,112.42 88.606,0 0,-5.9557 185.2593,0 0,5.9557 47.9776,0 0,-5.9557 172.546,0 0,5.9557 39.365,0 0,-5.9557 3.9534,0 0,5.9557 0.6963,0 0,0 84.1008,0 0,-5.9557 8.1811,0 0,5.9557 84.8167,0"
       style="fill:none;stroke:#1f78b4;stroke-width:1.14979994;stroke-linecap:butt;stroke-linejoin:miter;stroke-dasharray:none" /><path
       inkscape:connector-curvature="0"
       id="path84"
       d="m 102.1489,103.4775 99.079,0 0,-5.9557 88.3756,0 0,5.9557 97.1824,0 0,0 44.6206,0 0,-5.9557 222.7137,0 0,5.9557 16.7801,0 0,0 146.7508,0"
       style="fill:none;stroke:#1f78b4;stroke-width:1.14979994;stroke-linecap:butt;stroke-linejoin:miter;stroke-dasharray:none" /><path
       inkscape:connector-curvature="0"
       id="path86"
       d="m 102.1489,94.535 67.9778,0 0,-5.9557 129.8127,0 0,5.9557 116.8298,0 0,0 40.0786,0 0,-5.9557 82.586,0 0,5.9557 45.9393,0 0,0 114.0085,0 0,0 118.2695,0"
       style="fill:none;stroke:#1f78b4;stroke-width:1.14979994;stroke-linecap:butt;stroke-linejoin:miter;stroke-dasharray:none" /><path
       inkscape:connector-curvature="0"
       id="path88"
       d="m 102.1489,85.5925 56.6205,0 0,-5.9557 42.0855,0 0,5.9557 130.2868,0 0,0 30.6623,0 0,0 56.8403,0 0,-5.9557 0.8302,0 0,5.9557 170.3814,0 0,0 227.7952,0"
       style="fill:none;stroke:#1f78b4;stroke-width:1.14979994;stroke-linecap:butt;stroke-linejoin:miter;stroke-dasharray:none" /><path
       inkscape:connector-curvature="0"
       id="path92"
       d="m 102.2,434.35 715.4,0"
       style="fill:none;stroke:#808080;stroke-width:1.53299999;stroke-linecap:butt;stroke-linejoin:miter;stroke-dasharray:none" /><path
       inkscape:connector-curvature="0"
       id="path94"
       d="m 102.2,434.35 0,15.33"
       style="fill:none;stroke:#808080;stroke-width:1.53299999;stroke-linecap:butt;stroke-linejoin:miter;stroke-dasharray:none" /><path
       inkscape:connector-curvature="0"
       id="path96"
       d="m 245.28,434.35 0,15.33"
       style="fill:none;stroke:#808080;stroke-width:1.53299999;stroke-linecap:butt;stroke-linejoin:miter;stroke-dasharray:none" /><path
       inkscape:connector-curvature="0"
       id="path98"
       d="m 388.36,434.35 0,15.33"
       style="fill:none;stroke:#808080;stroke-width:1.53299999;stroke-linecap:butt;stroke-linejoin:miter;stroke-dasharray:none" /><path
       inkscape:connector-curvature="0"
       id="path100"
       d="m 531.44,434.35 0,15.33"
       style="fill:none;stroke:#808080;stroke-width:1.53299999;stroke-linecap:butt;stroke-linejoin:miter;stroke-dasharray:none" /><path
       inkscape:connector-curvature="0"
       id="path102"
       d="m 674.52,434.35 0,15.33"
       style="fill:none;stroke:#808080;stroke-width:1.53299999;stroke-linecap:butt;stroke-linejoin:miter;stroke-dasharray:none" /><path
       inkscape:connector-curvature="0"
       id="path104"
       d="m 817.6,434.35 0,15.33"
       style="fill:none;stroke:#808080;stroke-width:1.53299999;stroke-linecap:butt;stroke-linejoin:miter;stroke-dasharray:none" /><text
       sodipodi:linespacing="125%"
       y="466.79001"
       x="85.199997"
       id="text108"
       style="font-style:normal;font-variant:normal;font-weight:normal;font-stretch:normal;font-size:17.88505745px;line-height:125%;font-family:'Arial';-inkscape-font-specification:'Arial, Normal';text-align:start;writing-mode:lr-tb;text-anchor:start;fill:#000000;fill-rule:nonzero">6am</text>
<text
       sodipodi:linespacing="125%"
       y="466.79001"
       x="228.28"
       id="text110"
       style="font-style:normal;font-variant:normal;font-weight:normal;font-stretch:normal;font-size:17.88505745px;line-height:125%;font-family:'Arial';-inkscape-font-specification:'Arial, Normal';text-align:start;writing-mode:lr-tb;text-anchor:start;fill:#000000;fill-rule:nonzero">9am</text>
<text
       sodipodi:linespacing="125%"
       y="467.79001"
       x="366.35999"
       id="text112"
       style="font-style:normal;font-variant:normal;font-weight:normal;font-stretch:normal;font-size:17.88505745px;line-height:125%;font-family:'Arial';-inkscape-font-specification:'Arial, Normal';text-align:start;writing-mode:lr-tb;text-anchor:start;fill:#000000;fill-rule:nonzero">12pm</text>
<text
       sodipodi:linespacing="125%"
       y="466.79001"
       x="514.44"
       id="text114"
       style="font-style:normal;font-variant:normal;font-weight:normal;font-stretch:normal;font-size:17.88505745px;line-height:125%;font-family:'Arial';-inkscape-font-specification:'Arial, Normal';text-align:start;writing-mode:lr-tb;text-anchor:start;fill:#000000;fill-rule:nonzero">3pm</text>
<text
       sodipodi:linespacing="125%"
       y="466.79001"
       x="657.52002"
       id="text116"
       style="font-style:normal;font-variant:normal;font-weight:normal;font-stretch:normal;font-size:17.88505745px;line-height:125%;font-family:'Arial';-inkscape-font-specification:'Arial, Normal';text-align:start;writing-mode:lr-tb;text-anchor:start;fill:#000000;fill-rule:nonzero">6pm</text>
<text
       sodipodi:linespacing="125%"
       y="466.79001"
       x="800.59998"
       id="text118"
       style="font-style:normal;font-variant:normal;font-weight:normal;font-stretch:normal;font-size:17.88505745px;line-height:125%;font-family:'Arial';-inkscape-font-specification:'Arial, Normal';text-align:start;writing-mode:lr-tb;text-anchor:start;fill:#000000;fill-rule:nonzero">9pm</text>
</g></svg>
