<?xml version="1.0" encoding="UTF-8" standalone="no"?>
<!-- generated by Grace-5.1.25 -->

<svg
   xmlns:dc="http://purl.org/dc/elements/1.1/"
   xmlns:cc="http://creativecommons.org/ns#"
   xmlns:rdf="http://www.w3.org/1999/02/22-rdf-syntax-ns#"
   xmlns:svg="http://www.w3.org/2000/svg"
   xmlns="http://www.w3.org/2000/svg"
   xmlns:sodipodi="http://sodipodi.sourceforge.net/DTD/sodipodi-0.dtd"
   xmlns:inkscape="http://www.inkscape.org/namespaces/inkscape"
   xml:space="preserve"
   width="975.09882"
   height="320.39017"
   viewBox="0 0 780.0804 256.31294"
   id="svg3482"
   version="1.1"
   inkscape:version="0.91 r13725"
   sodipodi:docname="example-sum.svg"><metadata
     id="metadata3552"><rdf:RDF><cc:Work
         rdf:about=""><dc:format>image/svg+xml</dc:format><dc:type
           rdf:resource="http://purl.org/dc/dcmitype/StillImage" /><dc:title></dc:title></cc:Work></rdf:RDF></metadata><defs
     id="defs3550" /><sodipodi:namedview
     pagecolor="#ffffff"
     bordercolor="#666666"
     borderopacity="1"
     objecttolerance="10"
     gridtolerance="10"
     guidetolerance="10"
     inkscape:pageopacity="0"
     inkscape:pageshadow="2"
     inkscape:window-width="935"
     inkscape:window-height="712"
     id="namedview3548"
     showgrid="false"
     units="px"
     fit-margin-top="5"
     fit-margin-left="5"
     fit-margin-right="5"
     fit-margin-bottom="5"
     inkscape:zoom="0.55567902"
     inkscape:cx="418.98925"
     inkscape:cy="39.203996"
     inkscape:window-x="0"
     inkscape:window-y="23"
     inkscape:window-maximized="0"
     inkscape:current-layer="svg3482" /><g
     id="g3610"
     transform="translate(-59.154092,-65.968702)"><path
       inkscape:connector-curvature="0"
       id="path3492"
       d="m 102.1489,281.05 29.8931,0 0,-5.11 3.9996,0 0,5.11 6.7246,0 0,-5.11 1.2762,0 0,-5.11 0.4789,0 0,-5.11 5.5334,0 0,-5.11 1.5437,0 0,5.11 0.2389,0 0,-5.11 1.7701,0 0,5.11 0.0337,0 0,5.11 1.6183,0 0,-5.11 0.0867,0 0,-5.11 1.319,0 0,-5.11 0.2163,0 0,-5.11 0.5307,0 0,-5.11 1.3573,0 0,-5.11 0.3698,0 0,-5.11 0.8582,0 0,5.11 4.0221,0 0,-5.11 1.8499,0 0,-5.11 0.8012,0 0,-5.11 3.4561,0 0,-5.11 0.7937,0 0,-5.11 0.1901,0 0,-5.11 2.055,0 0,-5.11 0.0825,0 0,-5.11 0.4735,0 0,0 3.1081,0 0,-5.11 0.1724,0 0,5.11 0.4699,0 0,5.11 2.1584,0 0,5.11 0.0196,0 0,0 1.5935,0 0,5.11 4.7989,0 0,-5.11 0.1343,0 0,-5.11 2.1004,0 0,-5.11 0.1828,0 0,-5.11 1.422,0 0,-5.11 0.3733,0 0,-5.11 0.0417,0 0,-5.11 0.0753,0 0,5.11 0.3828,0 0,-5.11 1.3146,0 0,-5.11 0.9979,0 0,-5.11 4.5752,0 0,-5.11 3.2123,0 0,5.11 0.1874,0 0,-5.11 0.1856,0 0,-5.11 0.1888,0 0,-5.11 2.0237,0 0,-5.11 4.6414,0 0,-5.11 0.8258,0 0,5.11 1.6216,0 0,-5.11 0.3569,0 0,-5.11 2.2857,0 0,-5.11 0.9987,0 0,5.11 8.334,0 0,-5.11 6.6141,0 0,-5.11 1.1716,0 0,-5.11 0.2543,0 0,5.11 1.8207,0 0,-5.11 1.3465,0 0,-5.11 1.7504,0 0,5.11 4.0219,0 0,-5.11 5.426,0 0,-5.11 7.3697,0 0,5.11 13.3814,0 0,5.11 0.0274,0 0,5.11 1.4704,0 0,5.11 3.2212,0 0,5.11 6.9402,0 0,5.11 1.2639,0 0,5.11 7.2381,0 0,5.11 3.7812,0 0,5.11 1.0359,0 0,5.11 3.2083,0 0,5.11 0.5921,0 0,5.11 4.5226,0 0,5.11 0.977,0 0,5.11 6.816,0 0,5.11 5.4951,0 0,5.11 8.2803,0 0,-5.11 0.6885,0 0,5.11 8.6111,0 0,5.11 1.3113,0 0,0 2.7262,0 0,-5.11 0.8719,0 0,5.11 1.1861,0 0,5.11 0.4929,0 0,5.11 3.4782,0 0,0 1.3321,0 0,5.11 1.8233,0 0,0 0.005,0 0,5.11 8.6112,0 0,0 1.1546,0 0,0 0.9942,0 0,5.11 0.0482,0 0,0 1.3362,0 0,0 1.2078,0 0,5.11 1.298,0 0,0 1.6571,0 0,5.11 1.5046,0 0,0 0.1293,0 0,5.11 0.0522,0 0,0 0.7531,0 0,0 3.9247,0 0,0 1.3296,0 0,0 1.8099,0 0,5.11 4.9844,0 0,-5.11 1.6142,0 0,5.11 0.5474,0 0,5.11 0.8161,0 0,0 3.1858,0 0,-5.11 1.7671,0 0,0 0.0691,0 0,-5.11 3.2162,0 0,-5.11 0.9198,0 0,0 0.7976,0 0,0 1.9561,0 0,-5.11 2.332,0 0,-5.11 0.0631,0 0,5.11 0.2347,0 0,-5.11 1.5545,0 0,0 3.4149,0 0,0 0.0482,0 0,0 0.4854,0 0,0 0.4199,0 0,5.11 0.199,0 0,-5.11 1.292,0 0,-5.11 2.0798,0 0,0 1.6823,0 0,-5.11 2.7288,0 0,0 2.1888,0 0,-5.11 2.7244,0 0,-5.11 0.2471,0 0,-5.11 0.8107,0 0,5.11 3.4391,0 0,0 2.0825,0 0,0 0.1994,0 0,-5.11 0.4876,0 0,-5.11 1.1019,0 0,0 0.0862,0 0,-5.11 0.8302,0 0,5.11 0.522,0 0,5.11 1.8005,0 0,-5.11 2.1948,0 0,-5.11 1.0888,0 0,-5.11 0.7511,0 0,-5.11 2.9022,0 0,0 0.2203,0 0,0 1.2739,0 0,0 1.1784,0 0,-5.11 0.6374,0 0,5.11 1.445,0 0,0 0.2948,0 0,5.11 0.2196,0 0,5.11 0.6487,0 0,0 0.9791,0 0,-5.11 0.9117,0 0,-5.11 7.6759,0 0,-5.11 0.9024,0 0,-5.11 1.8295,0 0,5.11 2.5068,0 0,-5.11 0.9044,0 0,-5.11 6.486,0 0,-5.11 1.6617,0 0,-5.11 0.8164,0 0,-5.11 0.238,0 0,-5.11 0.9156,0 0,-5.11 0.8183,0 0,-5.11 3.0604,0 0,-5.11 0.7372,0 0,5.11 0.6796,0 0,5.11 5.3721,0 0,-5.11 2.5678,0 0,-5.11 1.1068,0 0,-5.11 0.1838,0 0,5.11 0.3837,0 0,-5.11 1.8933,0 0,5.11 1.1989,0 0,-5.11 1.083,0 0,5.11 1.0293,0 0,-5.11 4.023,0 0,5.11 6.7738,0 0,5.11 4.9083,0 0,-5.11 2.8686,0 0,5.11 0.9039,0 0,5.11 2.4769,0 0,5.11 14.0186,0 0,5.11 3.5053,0 0,5.11 2.1318,0 0,0 0.8633,0 0,5.11 0.3843,0 0,5.11 0.2695,0 0,5.11 0.839,0 0,5.11 5.8558,0 0,5.11 2.264,0 0,0 4.5132,0 0,5.11 0.3709,0 0,5.11 1.8699,0 0,5.11 1.5865,0 0,0 0.825,0 0,5.11 0.6453,0 0,0 1.0511,0 0,5.11 1.1458,0 0,5.11 0.6462,0 0,0 0.2757,0 0,5.11 7.8513,0 0,0 2.3273,0 0,0 9.718,0 0,0 2.2475,0 0,0 2.3416,0 0,5.11 1.3133,0 0,0 0.061,0 0,0 2.5533,0 0,0 3.7406,0 0,5.11 0.2887,0 0,5.11 7.3211,0 0,0 4.2892,0 0,5.11 0.1936,0 0,0 0.0634,0 0,0 2.3212,0 0,5.11 1.4408,0 0,5.11 2.8565,0 0,5.11 10.5733,0 0,5.11 4.5388,0 0,0 0.8713,0 0,5.11 8.0147,0 0,0 15.3669,0 0,-5.11 0.8518,0 0,0 3.1016,0 0,5.11 0.6963,0 0,0 11.474,0 0,-5.11 2.0937,0 0,5.11 5.0347,0 0,0 0.5388,0 0,0 4.1334,0 0,0 0.3807,0 0,5.11 4.4803,0 0,0 2.0033,0 0,0 0.2089,0 0,0 0.3056,0 0,0 2.1037,0 0,0 1.8734,0 0,0 3.366,0 0,0 2.4708,0 0,0 9.1292,0 0,0 3.9672,0 0,0 1.5376,0 0,0 0.1086,0 0,5.11 1.7493,0 0,0 1.8699,0 0,0 0.2091,0 0,0 3.13,0 0,5.11 0.221,0 0,0 0.4196,0 0,5.11 0.8087,0 0,0 2.615,0 0,-5.11 2.696,0 0,0 0.276,0 0,0 7.4292,0 0,-5.11 5.8916,0 0,5.11 1.5755,0 0,-5.11 3.9106,0 0,5.11 4.2705,0 0,5.11 5.7188,0 0,-5.11 15.1642,0 0,5.11 63.9337,0"
       style="fill:none;stroke:#1f78b4;stroke-width:1.14979994;stroke-linecap:butt;stroke-linejoin:miter;stroke-dasharray:none" /><path
       inkscape:connector-curvature="0"
       id="path3496"
       d="m 102.2,281.05 715.4,0"
       style="fill:none;stroke:#808080;stroke-width:1.53299999;stroke-linecap:butt;stroke-linejoin:miter;stroke-dasharray:none" /><path
       inkscape:connector-curvature="0"
       id="path3498"
       d="m 102.2,281.05 0,15.33"
       style="fill:none;stroke:#808080;stroke-width:1.53299999;stroke-linecap:butt;stroke-linejoin:miter;stroke-dasharray:none" /><path
       inkscape:connector-curvature="0"
       id="path3500"
       d="m 245.28,281.05 0,15.33"
       style="fill:none;stroke:#808080;stroke-width:1.53299999;stroke-linecap:butt;stroke-linejoin:miter;stroke-dasharray:none" /><path
       inkscape:connector-curvature="0"
       id="path3502"
       d="m 388.36,281.05 0,15.33"
       style="fill:none;stroke:#808080;stroke-width:1.53299999;stroke-linecap:butt;stroke-linejoin:miter;stroke-dasharray:none" /><path
       inkscape:connector-curvature="0"
       id="path3504"
       d="m 531.44,281.05 0,15.33"
       style="fill:none;stroke:#808080;stroke-width:1.53299999;stroke-linecap:butt;stroke-linejoin:miter;stroke-dasharray:none" /><path
       inkscape:connector-curvature="0"
       id="path3506"
       d="m 674.52,281.05 0,15.33"
       style="fill:none;stroke:#808080;stroke-width:1.53299999;stroke-linecap:butt;stroke-linejoin:miter;stroke-dasharray:none" /><path
       inkscape:connector-curvature="0"
       id="path3508"
       d="m 817.6,281.05 0,15.33"
       style="fill:none;stroke:#808080;stroke-width:1.53299999;stroke-linecap:butt;stroke-linejoin:miter;stroke-dasharray:none" /><text
       sodipodi:linespacing="125%"
       y="313.48999"
       x="85.199997"
       id="text3512"
       style="font-style:normal;font-variant:normal;font-weight:normal;font-stretch:normal;font-size:17.88505745px;line-height:125%;font-family:'Adelle Sans';-inkscape-font-specification:'Adelle Sans, Normal';text-align:start;writing-mode:lr-tb;text-anchor:start;fill:#000000;fill-rule:nonzero">6am</text>
<text
       sodipodi:linespacing="125%"
       y="313.48999"
       x="228.28"
       id="text3514"
       style="font-style:normal;font-variant:normal;font-weight:normal;font-stretch:normal;font-size:17.88505745px;line-height:125%;font-family:'Adelle Sans';-inkscape-font-specification:'Adelle Sans, Normal';text-align:start;writing-mode:lr-tb;text-anchor:start;fill:#000000;fill-rule:nonzero">9am</text>
<text
       sodipodi:linespacing="125%"
       y="314.48999"
       x="366.35999"
       id="text3516"
       style="font-style:normal;font-variant:normal;font-weight:normal;font-stretch:normal;font-size:17.88505745px;line-height:125%;font-family:'Adelle Sans';-inkscape-font-specification:'Adelle Sans, Normal';text-align:start;writing-mode:lr-tb;text-anchor:start;fill:#000000;fill-rule:nonzero">12pm</text>
<text
       sodipodi:linespacing="125%"
       y="313.48999"
       x="514.44"
       id="text3518"
       style="font-style:normal;font-variant:normal;font-weight:normal;font-stretch:normal;font-size:17.88505745px;line-height:125%;font-family:'Adelle Sans';-inkscape-font-specification:'Adelle Sans, Normal';text-align:start;writing-mode:lr-tb;text-anchor:start;fill:#000000;fill-rule:nonzero">3pm</text>
<text
       sodipodi:linespacing="125%"
       y="313.48999"
       x="657.52002"
       id="text3520"
       style="font-style:normal;font-variant:normal;font-weight:normal;font-stretch:normal;font-size:17.88505745px;line-height:125%;font-family:'Adelle Sans';-inkscape-font-specification:'Adelle Sans, Normal';text-align:start;writing-mode:lr-tb;text-anchor:start;fill:#000000;fill-rule:nonzero">6pm</text>
<text
       sodipodi:linespacing="125%"
       y="313.48999"
       x="800.59998"
       id="text3522"
       style="font-style:normal;font-variant:normal;font-weight:normal;font-stretch:normal;font-size:17.88505745px;line-height:125%;font-family:'Adelle Sans';-inkscape-font-specification:'Adelle Sans, Normal';text-align:start;writing-mode:lr-tb;text-anchor:start;fill:#000000;fill-rule:nonzero">9pm</text>
<path
       inkscape:connector-curvature="0"
       id="path3526"
       d="m 102.2,281.05 -15.33,0"
       style="fill:none;stroke:#808080;stroke-width:1.53299999;stroke-linecap:butt;stroke-linejoin:miter;stroke-dasharray:none" /><path
       inkscape:connector-curvature="0"
       id="path3528"
       d="m 102.2,229.95 -15.33,0"
       style="fill:none;stroke:#808080;stroke-width:1.53299999;stroke-linecap:butt;stroke-linejoin:miter;stroke-dasharray:none" /><path
       inkscape:connector-curvature="0"
       id="path3530"
       d="m 102.2,178.85 -15.33,0"
       style="fill:none;stroke:#808080;stroke-width:1.53299999;stroke-linecap:butt;stroke-linejoin:miter;stroke-dasharray:none" /><path
       inkscape:connector-curvature="0"
       id="path3532"
       d="m 102.2,127.75 -15.33,0"
       style="fill:none;stroke:#808080;stroke-width:1.53299999;stroke-linecap:butt;stroke-linejoin:miter;stroke-dasharray:none" /><path
       inkscape:connector-curvature="0"
       id="path3534"
       d="m 102.2,76.65 -15.33,0"
       style="fill:none;stroke:#808080;stroke-width:1.53299999;stroke-linecap:butt;stroke-linejoin:miter;stroke-dasharray:none" /><text
       sodipodi:linespacing="125%"
       y="287.04999"
       x="72.760002"
       id="text3538"
       style="font-style:normal;font-variant:normal;font-weight:normal;font-stretch:normal;font-size:17.88505745px;line-height:125%;font-family:'Adelle Sans';-inkscape-font-specification:'Adelle Sans, Normal';text-align:start;writing-mode:lr-tb;text-anchor:start;fill:#000000;fill-rule:nonzero">0 </text>
<text
       sodipodi:linespacing="125%"
       y="236.45"
       x="62.759998"
       id="text3540"
       style="font-style:normal;font-variant:normal;font-weight:normal;font-stretch:normal;font-size:17.88505745px;line-height:125%;font-family:'Adelle Sans';-inkscape-font-specification:'Adelle Sans, Normal';text-align:start;writing-mode:lr-tb;text-anchor:start;fill:#000000;fill-rule:nonzero">10 </text>
<text
       sodipodi:linespacing="125%"
       y="184.35001"
       x="62.759998"
       id="text3542"
       style="font-style:normal;font-variant:normal;font-weight:normal;font-stretch:normal;font-size:17.88505745px;line-height:125%;font-family:'Adelle Sans';-inkscape-font-specification:'Adelle Sans, Normal';text-align:start;writing-mode:lr-tb;text-anchor:start;fill:#000000;fill-rule:nonzero">20 </text>
<text
       sodipodi:linespacing="125%"
       y="133.75"
       x="62.759998"
       id="text3544"
       style="font-style:normal;font-variant:normal;font-weight:normal;font-stretch:normal;font-size:17.88505745px;line-height:125%;font-family:'Adelle Sans';-inkscape-font-specification:'Adelle Sans, Normal';text-align:start;writing-mode:lr-tb;text-anchor:start;fill:#000000;fill-rule:nonzero">30 </text>
<text
       sodipodi:linespacing="125%"
       y="83.150002"
       x="62.759998"
       id="text3546"
       style="font-style:normal;font-variant:normal;font-weight:normal;font-stretch:normal;font-size:17.88505745px;line-height:125%;font-family:'Adelle Sans';-inkscape-font-specification:'Adelle Sans, Normal';text-align:start;writing-mode:lr-tb;text-anchor:start;fill:#000000;fill-rule:nonzero">40 </text>
</g></svg>